<?xml version="1.0" standalone="no"?>
<!DOCTYPE svg PUBLIC "-//W3C//DTD SVG 20010904//EN"
 "http://www.w3.org/TR/2001/REC-SVG-20010904/DTD/svg10.dtd">
<svg version="1.0" xmlns="http://www.w3.org/2000/svg"
 width="120.000000pt" height="120.000000pt" viewBox="0 0 120.000000 120.000000"
 preserveAspectRatio="xMidYMid meet">

<g transform="translate(0.000000,120.000000) scale(0.100000,-0.100000)"
fill="cornflowerblue" stroke="none">
<path d="M0 600 l0 -600 600 0 600 0 0 600 0 600 -600 0 -600 0 0 -600z m586
235 c20 -21 24 -31 19 -59 -10 -51 8 -76 55 -76 21 0 40 -5 42 -11 2 -6 34
-11 75 -12 53 -2 76 -7 91 -20 54 -49 22 -136 -51 -137 -44 0 -78 41 -75 90 1
22 -1 42 -4 46 -4 3 -30 2 -60 -3 -67 -10 -72 -29 -23 -80 32 -33 36 -43 31
-72 -8 -49 -52 -107 -115 -152 -30 -21 -56 -38 -58 -36 -1 2 13 35 32 73 45
89 46 134 6 175 -16 16 -39 29 -50 29 -12 0 -66 -23 -121 -50 -115 -58 -134
-63 -70 -19 42 29 40 31 -17 14 -50 -14 -18 4 70 40 113 48 147 78 147 134 0
70 -15 89 -77 97 -59 7 -59 16 2 38 65 24 122 20 151 -9z"/>
<path d="M816 607 c3 -10 9 -15 12 -12 3 3 0 11 -7 18 -10 9 -11 8 -5 -6z"/>
</g>
</svg>
